<?xml version="1.0" ?><!DOCTYPE svg  PUBLIC '-//W3C//DTD SVG 1.1//EN'  'http://www.w3.org/Graphics/SVG/1.1/DTD/svg11.dtd'><svg enable-background="new 0 0 32 32" height="32px" id="Layer_1" version="1.1" viewBox="0 0 32 32" width="32px" xml:space="preserve" xmlns="http://www.w3.org/2000/svg" xmlns:xlink="http://www.w3.org/1999/xlink"><g id="communication"><path d="M21.504,17c-0.056,0-0.112-0.01-0.167-0.029c-0.2-0.07-0.333-0.259-0.333-0.471V13h-5   c-0.276,0-0.5-0.224-0.5-0.5s0.224-0.5,0.5-0.5h5.5c0.276,0,0.5,0.224,0.5,0.5v2.592l2.362-2.907   C24.461,12.067,24.604,12,24.754,12h4.75c0.275,0,0.5-0.225,0.5-0.5v-9c0-0.275-0.225-0.5-0.5-0.5h-25c-0.275,0-0.5,0.225-0.5,0.5   v9c0,0.275,0.225,0.5,0.5,0.5h1.5c0.276,0,0.5,0.224,0.5,0.5S6.28,13,6.004,13h-1.5c-0.827,0-1.5-0.673-1.5-1.5v-9   c0-0.827,0.673-1.5,1.5-1.5h25c0.827,0,1.5,0.673,1.5,1.5v9c0,0.827-0.673,1.5-1.5,1.5h-4.512l-3.101,3.815   C21.795,16.935,21.651,17,21.504,17z" fill="#263238"/><g><g><path d="M18.644,17.674l-4.762-1.652l-0.295-2.355c-0.239,0.106-0.516,0.168-0.833,0.168     c-0.056,0-0.103-0.012-0.155-0.016l0.329,2.635c0.023,0.189,0.152,0.349,0.332,0.41l5.055,1.756     c0.9,0.314,1.689,1.427,1.689,2.381v4.493c0,0.276,0.224,0.5,0.5,0.5s0.5-0.224,0.5-0.5V21     C21.004,19.621,19.945,18.129,18.644,17.674z" fill="#263238"/></g><g><path d="M1.504,25.993c-0.276,0-0.5-0.224-0.5-0.5V21c0-1.379,1.059-2.871,2.359-3.326l4.762-1.641l0.063-0.512     c0.034-0.274,0.289-0.465,0.559-0.434c0.273,0.034,0.468,0.284,0.434,0.559l-0.103,0.82c-0.023,0.189-0.153,0.348-0.333,0.41     l-5.054,1.742C2.793,18.934,2.004,20.047,2.004,21v4.493C2.004,25.77,1.78,25.993,1.504,25.993z" fill="#263238"/></g><g><path d="M11.004,30.961c-0.083,0-0.167-0.021-0.242-0.063l-6.5-3.591c-0.16-0.089-0.259-0.257-0.258-0.44     l0.019-3.346c0.002-0.275,0.229-0.543,0.503-0.496c0.276,0.001,0.499,0.227,0.497,0.502l-0.017,3.049l6.007,3.319l5.991-3.06     v-3.313c0-0.276,0.224-0.5,0.5-0.5s0.5,0.224,0.5,0.5v3.619c0,0.188-0.105,0.36-0.272,0.445l-6.5,3.319     C11.16,30.943,11.082,30.961,11.004,30.961z" fill="#263238"/></g><g><g><path d="M11.004,7c-0.943,0-1.68-0.172-2.131-0.317C8.609,6.598,8.465,6.316,8.549,6.054      C8.634,5.791,8.914,5.647,9.178,5.73C9.562,5.854,10.189,6,11.004,6c1.808,0,2.774-0.446,2.784-0.451      c0.248-0.115,0.547-0.014,0.666,0.236c0.118,0.248,0.016,0.545-0.232,0.664C14.176,6.473,13.063,7,11.004,7z" fill="#263238"/></g><g><path d="M11.004,15c-2.779,0-4.192-2.344-4.201-6.969C6.801,6.857,6.926,5.168,8.029,4.063      C8.733,3.357,9.733,3,11.004,3s2.271,0.357,2.975,1.063c1.104,1.105,1.229,2.795,1.227,3.969C15.196,12.656,13.783,15,11.004,15      z M11.004,4c-1.009,0-1.75,0.252-2.267,0.769C8.105,5.401,7.8,6.469,7.803,8.029C7.811,12.047,8.857,14,11.004,14      s3.193-1.953,3.201-5.971c0.003-1.561-0.303-2.628-0.935-3.261C12.754,4.252,12.013,4,11.004,4z" fill="#263238"/></g></g></g><path d="M22.504,9h-4c-0.276,0-0.5-0.224-0.5-0.5s0.224-0.5,0.5-0.5h4c0.276,0,0.5,0.224,0.5,0.5S22.78,9,22.504,9z   " fill="#263238"/><path d="M27.504,6h-9c-0.276,0-0.5-0.224-0.5-0.5s0.224-0.5,0.5-0.5h9c0.276,0,0.5,0.224,0.5,0.5S27.78,6,27.504,6z   " fill="#263238"/></g></svg>