<?xml version="1.0" ?><svg height="500" id="svg2" version="1.1" width="500" xmlns="http://www.w3.org/2000/svg" xmlns:cc="http://creativecommons.org/ns#" xmlns:dc="http://purl.org/dc/elements/1.1/" xmlns:inkscape="http://www.inkscape.org/namespaces/inkscape" xmlns:rdf="http://www.w3.org/1999/02/22-rdf-syntax-ns#" xmlns:sodipodi="http://sodipodi.sourceforge.net/DTD/sodipodi-0.dtd" xmlns:svg="http://www.w3.org/2000/svg"><defs id="defs4"/><g id="layer1" transform="translate(0,-552.36218)"><path d="m 0,552.36221 0,499.99999 500,0 0,-499.99999 z" id="rect2989-1-7" style="fill:#0072c6;fill-opacity:1;stroke:none"/><g id="layer1-9" transform="translate(-549.00515,80.294372)"/><g id="layer1-6" transform="translate(-575.71429,39.999999)"/><g id="g3083" transform="matrix(1.0042719,0,0,1.0042719,502.94667,585.02543)"><g id="g2988" style="fill:#999999" transform="translate(717.00003,271.6875)"><g id="g23" style="fill:#999999" transform="matrix(13.946041,0,0,13.946041,-502.07017,-337.31204)"/></g></g><path d="M 500,500 168.42715,500 62.076299,393.64915 114.28571,154.28571 261.42857,78.571427 283.39844,59.960932 379.21876,155.78125 432.52233,144.12946 500,211.60713 z" id="path3035" style="fill:#000000;stroke:none;stroke-width:1px;stroke-linecap:butt;stroke-linejoin:miter;stroke-opacity:1;opacity:0.29999999999999999" transform="translate(0,552.36218)"/><path d="M 283.34375 60 L 62.09375 102.8125 L 62.09375 393.625 L 283.34375 440 L 283.34375 60 z M 297.3125 140.5625 L 297.3125 214.875 L 323.28125 231.25 C 323.96632 231.44995 325.43996 231.46423 326.125 231.25 L 437.9375 155.875 C 437.9375 146.9548 429.63311 140.5625 424.9375 140.5625 L 297.3125 140.5625 z M 175.21875 183.53125 C 189.81935 183.53125 201.61916 189.47729 210.625 201.4375 C 219.64512 213.39772 224.15625 229.18264 224.15625 248.75 C 224.17053 268.85971 219.50464 285.07225 210.15625 297.375 C 200.80787 309.67775 188.60554 315.84375 173.5625 315.84375 C 158.90482 315.84375 146.9842 309.88614 137.75 297.96875 C 128.53008 286.03708 123.875 270.49722 123.875 251.34375 C 123.875 231.11985 128.59182 214.76954 137.96875 202.28125 C 147.34567 189.79296 159.76181 183.53125 175.21875 183.53125 z M 437.96875 185.90625 C 437.96875 185.90625 324.39574 261.39235 328.40625 258.9375 C 328.40625 258.9375 324.371 261.39235 321.03125 258.9375 L 297.3125 242.65625 L 297.3125 343.65625 L 417.71875 343.65625 C 428.42303 343.65625 437.96875 337.40304 437.96875 322.53125 L 437.96875 185.90625 z M 174.5625 208.375 C 166.48437 208.375 160.06519 212.17139 155.3125 219.75 C 150.55981 227.32862 148.15625 237.35546 148.15625 249.84375 C 148.15625 262.51758 150.55981 272.54172 155.3125 279.90625 C 160.06519 287.28505 166.29295 290.9375 174 290.9375 C 181.94969 290.9375 188.25347 287.35221 192.90625 280.1875 C 197.55903 273.02279 199.90625 263.06039 199.90625 250.34375 C 199.90625 237.08476 197.64933 226.78504 193.125 219.40625 C 188.60067 212.04172 182.41228 208.375 174.5625 208.375 z " id="rect2989-1" style="fill:#ffffff;fill-opacity:1;stroke:none" transform="translate(0,552.36218)"/></g></svg>