<?xml version="1.0" ?><svg height="500" id="svg2" version="1.1" width="500" xmlns="http://www.w3.org/2000/svg" xmlns:cc="http://creativecommons.org/ns#" xmlns:dc="http://purl.org/dc/elements/1.1/" xmlns:inkscape="http://www.inkscape.org/namespaces/inkscape" xmlns:rdf="http://www.w3.org/1999/02/22-rdf-syntax-ns#" xmlns:sodipodi="http://sodipodi.sourceforge.net/DTD/sodipodi-0.dtd" xmlns:svg="http://www.w3.org/2000/svg"><defs id="defs4"/><g id="layer1" transform="translate(0,-552.36218)"><path d="m 0,552.36216 0,500.00004 500,0 0,-500.00004 z" id="rect2989-1" style="fill:#01aef2;fill-opacity:1;stroke:none"/><path d="m 500,500 -254.64285,0 -126.25,-126.25 -3.39286,-236.60714 171.42857,-31.42857 91.96483,18.83983 L 500,245.44643 z" id="path3019" style="fill:#000000;stroke:none;stroke-width:1px;stroke-linecap:butt;stroke-linejoin:miter;stroke-opacity:1;opacity:0.3" transform="translate(0,552.36218)"/><path d="M 165.125 60 C 107.11681 60 60 106.39583 60 163.59375 C 60 182.79167 65.231423 200.69271 74.4375 216.03125 C 72.061739 227.60937 70.75 239.69791 70.75 251.96875 C 70.75 350.72915 151.95228 430.6875 252.03125 430.6875 C 263.41511 430.6875 274.49657 429.69792 285.1875 427.71875 C 300.03601 435.53646 316.9578 440 334.875 440 C 392.98217 440 440 393.60416 440 336.40625 C 440.099 319.88021 436.12205 304.22917 429.09375 290.375 C 431.86548 278.00521 433.28125 265.22396 433.28125 252.0625 C 433.28125 153.40106 352.0842 73.375 251.90625 73.375 C 241.31431 73.375 231.0345 74.25521 220.9375 75.9375 C 204.80213 65.84375 185.71494 60 165.125 60 z M 250.4375 126.21875 C 266.67187 126.21875 280.83994 128.09374 292.71875 131.65625 C 304.69654 135.3177 314.6693 140.27084 322.6875 146.40625 C 330.60671 152.54166 336.55089 159.04688 340.3125 165.875 C 344.07413 172.80208 345.96875 179.61979 345.96875 186.25 C 345.96875 192.58333 343.48077 198.45311 338.53125 203.5 C 333.58175 208.54687 327.36176 211.21875 319.9375 211.21875 C 313.20617 211.21875 307.94389 209.6354 304.28125 206.46875 C 300.91559 203.5 297.36061 198.91146 293.5 192.28125 C 288.94645 183.86979 283.51763 177.15624 277.28125 172.40625 C 271.14387 167.85416 261.02534 165.46875 246.96875 165.46875 C 234.00105 165.46875 223.41395 168.07812 215.59375 173.125 C 208.0705 177.97395 204.40625 183.58855 204.40625 190.21875 C 204.40625 194.27605 205.619 197.65626 208.09375 200.625 C 210.6675 203.69271 214.22246 206.47396 218.875 208.75 C 223.62653 211.125 228.55575 212.99479 233.40625 214.28125 C 238.45474 215.66667 246.88692 217.73959 258.46875 220.3125 C 273.21828 223.38021 286.68368 226.96354 298.5625 230.625 C 310.63928 234.48438 321.0181 239.11979 329.53125 244.5625 C 338.24238 250.10416 345.08175 257.33334 350.03125 265.84375 C 354.88177 274.35417 357.34375 285.04166 357.34375 297.3125 C 357.73971 312.25521 353.48189 325.72916 344.96875 337.40625 C 336.55459 349.08332 324.19265 358.34375 308.15625 364.875 C 292.21886 371.40625 273.21532 374.6875 251.4375 374.6875 C 225.40311 374.6875 203.62528 370.15625 186.5 361.25 C 174.32422 354.71875 164.31497 345.97916 156.59375 335.09375 C 148.87252 324.20833 145 313.33333 145 302.84375 C 145 296.3125 147.61299 290.6875 152.5625 285.9375 C 157.51201 281.38542 163.94551 279 171.46875 279 C 177.70513 279 183.01945 280.77604 187.375 284.4375 C 191.5326 287.90104 195.09804 293.05209 197.96875 299.78125 C 201.23542 307.00521 204.73839 313.1198 208.5 317.96875 C 212.06365 322.61979 217.09165 326.49479 223.625 329.5625 C 230.25733 332.63021 239.0486 334.21875 249.9375 334.21875 C 264.88501 334.21875 277.16893 331.04687 286.375 324.8125 C 295.48209 318.77604 299.84375 311.43749 299.84375 302.53125 C 299.84375 295.5052 297.56403 289.97916 292.8125 285.625 C 287.86299 281.07292 281.42444 277.53125 273.40625 275.15625 C 265.19006 272.58334 254.01485 269.86979 240.15625 267 C 221.34813 263.04167 205.42597 258.31249 192.65625 252.96875 C 179.68855 247.52604 169.18996 239.9323 161.46875 230.53125 C 153.64853 220.9323 149.78125 208.83853 149.78125 194.6875 C 149.78125 181.1302 153.94531 169.05208 162.0625 158.5625 C 170.17969 148.17187 181.93779 140.07292 197.28125 134.53125 C 212.32774 128.98959 230.24353 126.21875 250.4375 126.21875 z " id="rect2989-7" style="fill:#ffffff;fill-opacity:1;stroke:none" transform="translate(0,552.36218)"/><g id="layer1-9" transform="translate(-549.00515,80.294372)"/><g id="layer1-6" transform="translate(-575.71429,39.999999)"/></g></svg>